<svg width="40" height="40" viewBox="0 0 40 40" fill="none" xmlns="http://www.w3.org/2000/svg">
<path d="M36.3702 12.385C36.2169 12.1635 36.0121 11.9824 35.7735 11.8573C35.5349 11.7322 35.2696 11.6668 35.0002 11.6667H12.2218L10.2985 7.05001C10.0463 6.44204 9.61928 5.92265 9.07154 5.55769C8.5238 5.19273 7.88002 4.99863 7.22183 5.00001H3.3335V8.33334H7.22183L15.1285 27.3083C15.2551 27.6119 15.4688 27.8713 15.7425 28.0537C16.0163 28.2361 16.3379 28.3334 16.6668 28.3333H30.0002C30.6952 28.3333 31.3168 27.9017 31.5618 27.2533L36.5618 13.92C36.6563 13.6677 36.6883 13.3963 36.6549 13.1289C36.6215 12.8616 36.5238 12.6063 36.3702 12.385Z" fill="white"/>
<path d="M17.5 35C18.8807 35 20 33.8807 20 32.5C20 31.1193 18.8807 30 17.5 30C16.1193 30 15 31.1193 15 32.5C15 33.8807 16.1193 35 17.5 35Z" fill="white"/>
<path d="M29.1667 35C30.5475 35 31.6667 33.8807 31.6667 32.5C31.6667 31.1193 30.5475 30 29.1667 30C27.786 30 26.6667 31.1193 26.6667 32.5C26.6667 33.8807 27.786 35 29.1667 35Z" fill="white"/>
</svg>
